<svg xmlns="http://www.w3.org/2000/svg">
  <defs>
    <g id='dashboard' width="32" height="32" viewBox="0 0 32 32"><defs><style>.a{fill:#c02e42;}</style></defs><g transform="translate(386 69)"><g transform="translate(-386 -69)"><path class="a" d="M6,20.444H19.778V6H6ZM6,32H19.778V23.333H6Zm17.222,0H37V17.556H23.222Zm0-26v8.667H37V6Z" transform="translate(-6 -6)"/></g></g></g>
    <g id='candidates' width="32" height="32" viewBox="0 0 32 32"><defs><style>.a{fill:#8181a5;}</style></defs><g transform="translate(-308 -65)"><g transform="translate(308 65)"><path class="a" d="M31.609,5h-4.87a.7.7,0,0,0-.7.7A2.13,2.13,0,0,1,22.581,7.33a1.841,1.841,0,0,1-.711-1.619.7.7,0,0,0-.7-.712H12.826a.7.7,0,0,0-.7.7A2.13,2.13,0,0,1,8.667,7.33a1.841,1.841,0,0,1-.711-1.619A.7.7,0,0,0,7.261,5H2.391A1.391,1.391,0,0,0,1,6.391V30.043a1.391,1.391,0,0,0,1.391,1.391H31.609A1.391,1.391,0,0,0,33,30.043V6.391A1.391,1.391,0,0,0,31.609,5ZM11.435,13.348A2.783,2.783,0,1,1,8.652,16.13,2.783,2.783,0,0,1,11.435,13.348Zm-4.87,11.13A4.174,4.174,0,0,1,10.739,20.3H12.13A4.174,4.174,0,0,1,16.3,24.478Zm20.174-1.391H20.478a.7.7,0,1,1,0-1.391h6.261a.7.7,0,0,1,0,1.391Zm0-5.565H20.478a.7.7,0,1,1,0-1.391h6.261a.7.7,0,1,1,0,1.391Z" transform="translate(-1 -5)"/></g></g></g>
    <g id='jobs' width="32" height="32" viewBox="0 0 32 32"><defs><style>.a{fill:#8181a5;}</style></defs><g transform="translate(0 -1)"><path class="a" d="M20,25v2H12V25H1v5a1,1,0,0,0,1,1H30a1,1,0,0,0,1-1V25Z"/><path class="a" d="M31,6H22V2a1,1,0,0,0-1-1H11a1,1,0,0,0-1,1V6H1A1,1,0,0,0,0,7V22a1,1,0,0,0,1,1H12V21h8v2H31a1,1,0,0,0,1-1V7A1,1,0,0,0,31,6ZM20,6H12V3h8Z"/></g></g>
    <g id='settings' width="32" height="32" viewBox="0 0 32 32"><defs><style>.a{fill:#8181a5;}</style></defs><path class="a" d="M31,4H17a.945.945,0,0,0-1,1,.945.945,0,0,0,1,1H31a.945.945,0,0,0,1-1A.945.945,0,0,0,31,4Z"/><path class="a" d="M1,6H7V9a.945.945,0,0,0,1,1h5a.945.945,0,0,0,1-1V1a.945.945,0,0,0-1-1H8A.945.945,0,0,0,7,1V4H1A.945.945,0,0,0,0,5,.945.945,0,0,0,1,6Z"/><path class="a" d="M31,26H17a1,1,0,0,0,0,2H31a1,1,0,0,0,0-2Z"/><path class="a" d="M13,22H8a.945.945,0,0,0-1,1v3H1a1,1,0,0,0,0,2H7v3a.945.945,0,0,0,1,1h5a.945.945,0,0,0,1-1V23A.945.945,0,0,0,13,22Z"/><path class="a" d="M31,15H28a1,1,0,0,0,0,2h3a1,1,0,0,0,0-2Z"/><path class="a" d="M1,17H18v3a.945.945,0,0,0,1,1h5a.945.945,0,0,0,1-1V12a.945.945,0,0,0-1-1H19a.945.945,0,0,0-1,1v3H1a1,1,0,0,0,0,2Z"/></g>
    <g id='teams' width="32" height="26.925" viewBox="0 0 32 26.925"><defs><style>.a{fill:#8181a5;}</style></defs><g transform="translate(0.001 -5.06)"><path class="a" d="M11.33,9.73A4.67,4.67,0,1,1,16,14.4a4.67,4.67,0,0,1-4.67-4.67Zm15,4.73a3.961,3.961,0,1,1,.015,0ZM5.655,6.555a3.955,3.955,0,1,0,2.8,1.167,3.955,3.955,0,0,0-2.8-1.167Zm20.69,9.8a6.84,6.84,0,0,0-3.16.7,7.855,7.855,0,0,1,.9,1.29c1.655,3,.92,7.46.03,10.65h6.2S33.214,22.14,31.4,18.89C29.944,16.26,26.709,16.36,26.344,16.36Zm-20.69,0c-.365,0-3.6-.1-5.06,2.53C-1.215,22.14,1.68,29.03,1.68,29.03h6.2c-.89-3.19-1.625-7.67.03-10.65a7.855,7.855,0,0,1,.9-1.29,6.84,6.84,0,0,0-3.16-.73ZM16,16.16c-.455,0-4.5-.125-6.335,3.17-1.79,3.215.1,9.265.965,11.655a1.545,1.545,0,0,0,1.45,1h7.84a1.545,1.545,0,0,0,1.45-1c.865-2.39,2.755-8.455.965-11.655C20.5,16.03,16.454,16.16,16,16.16Z" transform="translate(0)"/></g></g>
    <g id='configuration' width="38.5" height="38.5" viewBox="0 0 38.5 38.5"> ><defs><style>.a{fill:#8181a5;}</style></defs><g transform="translate(-4 0.06)"><path  d="M106.98,42.672a10.223,10.223,0,0,1-13.652-6.745,9.95,9.95,0,0,1,.04-5.655.853.853,0,0,1,1.414-.363l4.039,4.039a3.684,3.684,0,1,0,5.21-5.21L99.992,24.7a.861.861,0,0,1,.363-1.414,10.313,10.313,0,0,1,5.655-.04,10.3,10.3,0,0,1,6.7,13.692l6.624,6.624a18.99,18.99,0,0,0,3.07-10.38A19.227,19.227,0,1,0,113.6,49.3Z" transform="translate(-79.997 -13.994)"/></g></g>
    <g id='syndication-partner' width="32" height="32" viewBox="0 0 0 0"><defs><style>.a{fill:#8181a5;}</style></defs><g transform="translate(0)"><g transform="translate(0)"><g transform="translate(16.498)"><path class="a" d="M8,.189V9.3a37.374,37.374,0,0,0,5.684-.511A22.059,22.059,0,0,0,8,.189Z" transform="translate(-8 0.201)"/><path class="a" d="M20.063,6.836A16.755,16.755,0,0,0,9.269,0a24.2,24.2,0,0,1,5.17,8.614A35.889,35.889,0,0,0,20.063,6.836Z" transform="translate(-6.652)"/><path class="a" d="M8,11.392v9.113a22.066,22.066,0,0,0,5.684-8.6A37.374,37.374,0,0,0,8,11.392Z" transform="translate(-8 12.101)"/><path class="a" d="M18.232,4.193a38.133,38.133,0,0,1-6.179,1.98,24.337,24.337,0,0,1,.742,5.871,24.319,24.319,0,0,1-.74,5.869A37.939,37.939,0,0,1,18.234,19.9a16.7,16.7,0,0,0,0-15.7Z" transform="translate(-3.695 4.454)"/><path class="a" d="M15.006,10.826a22.229,22.229,0,0,0-.711-5.486A39.335,39.335,0,0,1,8,5.924v9.8a39.335,39.335,0,0,1,6.294.584A22.212,22.212,0,0,0,15.006,10.826Z" transform="translate(-8 5.673)"/><path class="a" d="M9.269,20.437a16.765,16.765,0,0,0,10.8-6.836,35.889,35.889,0,0,0-5.624-1.778A24.236,24.236,0,0,1,9.269,20.437Z" transform="translate(-6.652 12.559)"/></g><ellipse class="a" cx="4.287" cy="4.073" rx="4.287" ry="4.073" transform="translate(1.922 0.207)"/><path class="a" d="M9.379,5H8.249a1.039,1.039,0,0,0-.73.3L6.187,6.635,4.852,5.3A1.03,1.03,0,0,0,4.124,5H2.994A2.053,2.053,0,0,0,.944,6.856L.006,16.239a1.027,1.027,0,0,0,1.025,1.134h1.13l.846,8.455a2.055,2.055,0,0,0,2.05,1.856h2.26a2.055,2.055,0,0,0,2.05-1.856l.846-8.455h1.13a1.035,1.035,0,0,0,.765-.338,1.024,1.024,0,0,0,.26-.8l-.938-9.381A2.055,2.055,0,0,0,9.379,5Z" transform="translate(0 5.311)"/></g></g></g>
    <g id='syndication-partner' width="32.996" height="32.996" viewBox="0 0 32.996 32.996"><defs><style>.a{fill:#8181a5;}</style></defs><g transform="translate(0)"><g transform="translate(0)"><g transform="translate(16.498)"><path class="a" d="M8,.189V9.3a37.374,37.374,0,0,0,5.684-.511A22.059,22.059,0,0,0,8,.189Z" transform="translate(-8 0.201)"/><path class="a" d="M20.063,6.836A16.755,16.755,0,0,0,9.269,0a24.2,24.2,0,0,1,5.17,8.614A35.889,35.889,0,0,0,20.063,6.836Z" transform="translate(-6.652)"/><path class="a" d="M8,11.392v9.113a22.066,22.066,0,0,0,5.684-8.6A37.374,37.374,0,0,0,8,11.392Z" transform="translate(-8 12.101)"/><path class="a" d="M18.232,4.193a38.133,38.133,0,0,1-6.179,1.98,24.337,24.337,0,0,1,.742,5.871,24.319,24.319,0,0,1-.74,5.869A37.939,37.939,0,0,1,18.234,19.9a16.7,16.7,0,0,0,0-15.7Z" transform="translate(-3.695 4.454)"/><path class="a" d="M15.006,10.826a22.229,22.229,0,0,0-.711-5.486A39.335,39.335,0,0,1,8,5.924v9.8a39.335,39.335,0,0,1,6.294.584A22.212,22.212,0,0,0,15.006,10.826Z" transform="translate(-8 5.673)"/><path class="a" d="M9.269,20.437a16.765,16.765,0,0,0,10.8-6.836,35.889,35.889,0,0,0-5.624-1.778A24.236,24.236,0,0,1,9.269,20.437Z" transform="translate(-6.652 12.559)"/></g><ellipse class="a" cx="4.287" cy="4.073" rx="4.287" ry="4.073" transform="translate(1.922 0.207)"/><path class="a" d="M9.379,5H8.249a1.039,1.039,0,0,0-.73.3L6.187,6.635,4.852,5.3A1.03,1.03,0,0,0,4.124,5H2.994A2.053,2.053,0,0,0,.944,6.856L.006,16.239a1.027,1.027,0,0,0,1.025,1.134h1.13l.846,8.455a2.055,2.055,0,0,0,2.05,1.856h2.26a2.055,2.055,0,0,0,2.05-1.856l.846-8.455h1.13a1.035,1.035,0,0,0,.765-.338,1.024,1.024,0,0,0,.26-.8l-.938-9.381A2.055,2.055,0,0,0,9.379,5Z" transform="translate(0 5.311)"/></g></g></g>
    <g id='analytics' width="35" height="35" viewBox="0 0 35 35"><defs><style>.a{fill:#8181a5;}</style></defs>  <g id="analytics" transform="translate(-5 -5)"><path id="Path_10297" data-name="Path 10297" d="M35.363,59.629a.629.629,0,0,1-.629.629h-15.1a.629.629,0,0,1,0-1.259h15.1A.629.629,0,0,1,35.363,59.629Z" transform="translate(-5.189 -20.016)" /><path id="Path_10298" data-name="Path 10298" d="M34.3,55.293H23.11L25.269,49h6.872Z" transform="translate(-6.713 -16.309)" /><path id="Path_10299" data-name="Path 10299" d="M5,26.4v1.888a3.147,3.147,0,0,0,3.147,3.147H35.838a3.147,3.147,0,0,0,3.147-3.147V26.4Zm17.622,3.147H21.363a.629.629,0,0,1,0-1.259h1.259a.629.629,0,0,1,0,1.259ZM35.838,5H8.147A3.147,3.147,0,0,0,5,8.147V25.139H38.984V8.147A3.147,3.147,0,0,0,35.838,5ZM34.579,19.475a1.888,1.888,0,0,1-1.888-1.888,1.945,1.945,0,0,1,.088-.541L26.2,12.225a1.888,1.888,0,0,1-1.064.327,1.844,1.844,0,0,1-.629-.113l-5.324,6.677a1.819,1.819,0,0,1,.289.988,1.888,1.888,0,1,1-3.776,0,1.819,1.819,0,0,1,.076-.491l-5.268-3.644a1.885,1.885,0,1,1,.787-1.529,1.819,1.819,0,0,1-.076.491l5.268,3.644a1.888,1.888,0,0,1,1.1-.359,1.844,1.844,0,0,1,.629.113l5.337-6.677a1.819,1.819,0,0,1-.3-.988,1.888,1.888,0,0,1,3.776,0,1.944,1.944,0,0,1-.088.541l6.577,4.821a1.888,1.888,0,1,1,1.064,3.449Z" /><circle id="Ellipse_217" data-name="Ellipse 217" cx="0.5" cy="0.5" r="0.5" transform="translate(34 17)" /><circle id="Ellipse_218" data-name="Ellipse 218" cx="0.5" cy="0.5" r="0.5" transform="translate(25 10)" /><circle id="Ellipse_219" data-name="Ellipse 219" cx="0.5" cy="0.5" r="0.5" transform="translate(9 14)" /><ellipse id="Ellipse_220" data-name="Ellipse 220" cx="0.5" cy="1" rx="0.5" ry="1" transform="translate(17 19)" /></g></g>

    <g id='stats_offers' width="28.23" height="27.862" viewBox="0 0 28.23 27.862"><defs><style>.a{fill:none;stroke:#fff;stroke-linecap:round;stroke-linejoin:round;stroke-miterlimit:10;stroke-width:2px;}</style></defs><g transform="translate(1 1)"><g transform="translate(0 0)"><path class="a" d="M9.493,13.5A2.628,2.628,0,0,0,7.12,12h-3.5A2.623,2.623,0,0,0,1,14.623v4.372H2.749v6.12H7.995" transform="translate(-1 -2.75)"/><ellipse class="a" cx="2" cy="3" rx="2" ry="3" transform="translate(2.475 2)"/><path class="a" d="M21.287,13.5A2.628,2.628,0,0,1,23.659,12h3.5a2.623,2.623,0,0,1,2.623,2.623v4.372H28.031v6.12H22.785" transform="translate(-3.549 -2.75)"/><circle class="a" cx="3" cy="3" r="3" transform="translate(18.475 2)"/><path class="a" d="M17.869,28.613H12.623V21.618H10V15.5A3.5,3.5,0,0,1,13.5,12h3.5a3.5,3.5,0,0,1,3.5,3.5v6.12H17.869Z" transform="translate(-2.131 -2.75)"/><ellipse class="a" cx="3" cy="4" rx="3" ry="4" transform="translate(10.475)"/></g></g></g>
    <g id='stats_active_jobs' width="26.62" height="24.979" viewBox="0 0 26.62 24.979"><defs><style>.a{fill:none;stroke:#fff;stroke-linecap:round;stroke-linejoin:round;stroke-miterlimit:10;stroke-width:2px;}</style></defs><g transform="translate(1 1)"><g transform="translate(0 0)"><path class="a" d="M11,6.1V2h8.207V6.1" transform="translate(-2.793 -2)"/><path class="a" d="M10.027,20.131H1V7H25.62V20.131H16.593" transform="translate(-1 -2.897)"/><path class="a" d="M24.979,26v3.283H2V26" transform="translate(-1.179 -6.304)"/><rect class="a" width="6" height="6" transform="translate(9.511 14.42)"/></g></g></g>
    <g id='stats_pipeline' width="26.199" height="26.199" viewBox="0 0 26.199 26.199"><defs><style>.a{fill:#fff;}</style></defs><g transform="translate(0 0)"><path class="a" d="M27.426,14.549,15.637,2.76A2.6,2.6,0,0,0,13.79,2H4.62A2.628,2.628,0,0,0,2,4.62v9.17a2.614,2.614,0,0,0,.773,1.86l11.79,11.789a2.6,2.6,0,0,0,1.847.76,2.561,2.561,0,0,0,1.847-.773l9.17-9.17a2.561,2.561,0,0,0,.773-1.847A2.646,2.646,0,0,0,27.426,14.549Zm-20.841-6A1.965,1.965,0,1,1,8.55,6.585,1.962,1.962,0,0,1,6.585,8.55Z" transform="translate(-2 -2)"/></g></g>
    <g id='person-single' width="10" height="10" viewBox="0 0 10 10"><defs><style>.a{fill:#1c1d21;}</style></defs><g transform="translate(-1)"><g transform="translate(1)"><circle class="a" cx="2.021" cy="2.021" r="2.021" transform="translate(2.979)"/><path class="a" d="M6,6C3.239,6,1,7.81,1,10.042H11C11,7.81,8.761,6,6,6Z" transform="translate(-1 -0.042)"/></g></g></g>
    <g id='edit_profile' width="16" height="16" viewBox="0 0 16 16"><defs><style>.a{fill:#8181a5;}</style></defs><circle class="a" cx="4" cy="4" r="4" transform="translate(4)"/><path class="a" d="M7,13.171l3.054-3.054A18.531,18.531,0,0,0,8,10a16.654,16.654,0,0,0-6.837,1.382A1.989,1.989,0,0,0,0,13.2V16H7Z"/><path class="a" d="M11,16H9V14l5-5,2,2Z"/></g>
    <g id="logo_facebook" width="10" height="16" viewBox="0 0 10 16"><defs><style>.a{fill:#8181a5;}</style></defs><g transform="translate(-3)"><path class="a" d="M6.023,16,6,9H3V6H6V4c0-2.7,1.672-4,4.079-4a22.346,22.346,0,0,1,2.434.124V2.945h-1.67c-1.31,0-1.563.622-1.563,1.535V6H13L12,9H9.28v7Z"/></g></g>
    <g id="logo_github" width="16.1" height="15.62" viewBox="0 0 16.1 15.62"><defs><style>.a{fill:#8181a5;fill-rule:evenodd;}</style></defs><g transform="translate(0 -0.2)"><path class="a" d="M8,.2a8.024,8.024,0,0,0-8,8,8.085,8.085,0,0,0,5.5,7.6c.4.1.5-.2.5-.4V14c-2.2.5-2.7-1-2.7-1a2.689,2.689,0,0,0-.9-1.2c-.7-.5.1-.5.1-.5a1.741,1.741,0,0,1,1.2.8,1.632,1.632,0,0,0,2.3.7,2.257,2.257,0,0,1,.5-1.1c-1.8-.2-3.6-.9-3.6-4a2.865,2.865,0,0,1,.8-2.1,2.486,2.486,0,0,1,.1-2.1s.7-.2,2.2.8A6.448,6.448,0,0,1,8,4a6.448,6.448,0,0,1,2,.3c1.5-1,2.2-.8,2.2-.8a2.983,2.983,0,0,1,.1,2.1,3.227,3.227,0,0,1,.8,2.1c0,3.1-1.9,3.7-3.7,3.9a2.578,2.578,0,0,1,.6,1.6v2.2c0,.2.1.5.6.4a8.085,8.085,0,0,0,5.5-7.6A8.176,8.176,0,0,0,8,.2Z"/></g></g>
    <g id="logo_linked_in" width="16.1" height="16" viewBox="0 0 16.1 16"><defs><style>.a{fill:#8181a5;}</style></defs><path class="a" d="M15.3,0H.7A.684.684,0,0,0,0,.7V15.4a.669.669,0,0,0,.7.6H15.4a.684.684,0,0,0,.7-.7V.7A.849.849,0,0,0,15.3,0ZM4.7,13.6H2.4V6H4.8v7.6ZM3.6,5A1.43,1.43,0,0,1,2.2,3.6,1.367,1.367,0,0,1,3.6,2.2,1.367,1.367,0,0,1,5,3.6,1.593,1.593,0,0,1,3.6,5Zm10,8.6H11.2V9.9c0-.9,0-2-1.2-2s-1.4,1-1.4,2v3.8H6.2V6H8.5V7h0a2.441,2.441,0,0,1,2.2-1.2c2.4,0,2.8,1.6,2.8,3.6v4.2Z"/></g>
    <g id="logo_twitter" width="16" height="13" viewBox="0 0 16 13"><defs><style>.a{fill:#8181a5;}</style></defs><g transform="translate(0 -1.5)"><path class="a" d="M16,3a5.918,5.918,0,0,1-1.9.5,2.827,2.827,0,0,0,1.4-1.8,6.561,6.561,0,0,1-2.1.8,3.492,3.492,0,0,0-2.4-1A3.311,3.311,0,0,0,7.8,4.8a1.483,1.483,0,0,0,.1.7A9.2,9.2,0,0,1,1.1,2.1,3.064,3.064,0,0,0,.7,3.8,3.282,3.282,0,0,0,2.2,6.5,4.191,4.191,0,0,1,.7,6.1h0A3.228,3.228,0,0,0,3.3,9.3a2.769,2.769,0,0,1-.9.1,1.268,1.268,0,0,1-.6-.1,3.24,3.24,0,0,0,3.1,2.3A6.359,6.359,0,0,1,.8,13H0a9.757,9.757,0,0,0,5,1.5,9.256,9.256,0,0,0,9.3-9.3V4.8A5.814,5.814,0,0,0,16,3Z"/></g></g>
    <g id='chevron-down'><path fill="#000" fillRule="evenodd" d="M3.96 4.91L0 .95l.99-.99 3.96 3.96L8.91-.04l.99.99L4.95 5.9l-.99-.99z" /></g>
    <g id='reassign_candidate' width="23" height="21"><defs><style>.a{fill:#8181a5;}</style></defs><path class="a" d="M23.628,3.1H18.239A3.913,3.913,0,0,0,14.6,1a3.913,3.913,0,0,0-3.636,2.1H5.579A2.384,2.384,0,0,0,3,5.2V19.9A2.384,2.384,0,0,0,5.579,22h18.05a2.384,2.384,0,0,0,2.579-2.1V5.2A2.384,2.384,0,0,0,23.628,3.1ZM14.6,3.1a1.192,1.192,0,0,1,1.289,1.05A1.192,1.192,0,0,1,14.6,5.2a1.192,1.192,0,0,1-1.289-1.05A1.192,1.192,0,0,1,14.6,3.1Zm0,4.2c2.14,0,3.868,1.407,3.868,3.15S16.744,13.6,14.6,13.6s-3.868-1.407-3.868-3.15S12.463,7.3,14.6,7.3Zm7.736,12.6H6.868V18.43c0-2.1,5.157-3.255,7.736-3.255s7.736,1.155,7.736,3.255Z" transform="translate(-3 -1)"/></g>
    <g id='mail_candidate' width="24" height="20"><defs><style>.a{fill:#8181a5;}</style></defs><g transform="translate(0 -2)"><path class="a" d="M13.4,14.6A2.3,2.3,0,0,1,12,15a2.3,2.3,0,0,1-1.4-.4L0,8.9V19a3,3,0,0,0,3,3H21a3,3,0,0,0,3-3V8.9Z"/><path class="a" d="M21,2H3A3,3,0,0,0,0,5V6a1.05,1.05,0,0,0,.5.9l11,6a.9.9,0,0,0,.5.1.9.9,0,0,0,.5-.1l11-6A1.05,1.05,0,0,0,24,6V5A3,3,0,0,0,21,2Z"/></g></g>
    <g id='default_company_logo' transform="translate(-5 -5)" width="56.922" height="56.921" viewBox="0 0 56.922 56.921">
      <path id="Path_9308" data-name="Path 9308" d="M46.351,58.274a.751.751,0,0,0-.651.765v1.455a.75.75,0,0,0,.651.765.761.761,0,0,0,.841-.765V59.04A.742.742,0,0,0,46.351,58.274Z" transform="translate(-14.959 -19.577)" fill="#c02e42"/>
      <path id="Path_9321" data-name="Path 9321" d="M33.461,5A28.461,28.461,0,1,0,61.922,33.461,28.463,28.463,0,0,0,33.461,5Zm-2.41,45.67H24.4V44.9h6.653Zm5.085,0H32.392V44.326a.764.764,0,0,0-.765-.765h-7.8a.764.764,0,0,0-.765.765v6.35h-3.82V22.563a.636.636,0,0,1,.19-.424,16.963,16.963,0,0,1,3.9-2.789,27.482,27.482,0,0,1,12.428-3.1.372.372,0,0,1,.379.424V50.67Zm11.549,0h-10.4V33.537a.606.606,0,0,1,.613-.613h9.177a.606.606,0,0,1,.613.613V50.67Z" fill="#c02e42"/>
      <g id="Group_10433" data-name="Group 10433">
        <path id="Path_9304" data-name="Path 9304" d="M40.011,37.9a.751.751,0,0,0-.651.765v1.493a.75.75,0,0,0,.651.765.761.761,0,0,0,.841-.765V38.67A.744.744,0,0,0,40.011,37.9Z" transform="translate(-12.629 -12.09)" fill="#c02e42"/>
        <path id="Path_9305" data-name="Path 9305" d="M40.011,51.5a.751.751,0,0,0-.651.765v1.455a.75.75,0,0,0,.651.765.761.761,0,0,0,.841-.765V52.27A.747.747,0,0,0,40.011,51.5Z" transform="translate(-12.629 -17.089)" fill="#c02e42"/>
        <path id="Path_9306" data-name="Path 9306" d="M40.011,44.734a.751.751,0,0,0-.651.765v1.455a.75.75,0,0,0,.651.765.761.761,0,0,0,.841-.765V45.5A.744.744,0,0,0,40.011,44.734Z" transform="translate(-12.629 -14.6)" fill="#c02e42"/>
        <path id="Path_9307" data-name="Path 9307" d="M40.011,31.194a.751.751,0,0,0-.651.765v1.455a.75.75,0,0,0,.651.765.761.761,0,0,0,.841-.765V31.959A.741.741,0,0,0,40.011,31.194Z" transform="translate(-12.629 -9.623)" fill="#c02e42"/>
        <path id="Path_9309" data-name="Path 9309" d="M46.351,51.5a.751.751,0,0,0-.651.765v1.455a.75.75,0,0,0,.651.765.761.761,0,0,0,.841-.765V52.27A.742.742,0,0,0,46.351,51.5Z" transform="translate(-14.959 -17.089)" fill="#c02e42"/>
        <path id="Path_9310" data-name="Path 9310" d="M33.961,51.5a.751.751,0,0,0-.651.765v1.455a.75.75,0,0,0,.651.765.761.761,0,0,0,.841-.765V52.27A.745.745,0,0,0,33.961,51.5Z" transform="translate(-10.405 -17.089)" fill="#c02e42"/>
        <path id="Path_9311" data-name="Path 9311" d="M40.011,58.274a.751.751,0,0,0-.651.765v1.455a.75.75,0,0,0,.651.765.761.761,0,0,0,.841-.765V59.04A.747.747,0,0,0,40.011,58.274Z" transform="translate(-12.629 -19.577)" fill="#c02e42"/>
        <path id="Path_9312" data-name="Path 9312" d="M33.961,58.274a.751.751,0,0,0-.651.765v1.455a.75.75,0,0,0,.651.765.761.761,0,0,0,.841-.765V59.04A.745.745,0,0,0,33.961,58.274Z" transform="translate(-10.405 -19.577)" fill="#c02e42"/>
        <path id="Path_9313" data-name="Path 9313" d="M33.961,37.9a.751.751,0,0,0-.651.765v1.493a.75.75,0,0,0,.651.765.761.761,0,0,0,.841-.765V38.67A.741.741,0,0,0,33.961,37.9Z" transform="translate(-10.405 -12.09)" fill="#c02e42"/>
        <path id="Path_9314" data-name="Path 9314" d="M33.961,44.734a.751.751,0,0,0-.651.765v1.455a.75.75,0,0,0,.651.765.761.761,0,0,0,.841-.765V45.5A.741.741,0,0,0,33.961,44.734Z" transform="translate(-10.405 -14.6)" fill="#c02e42"/>
        <path id="Path_9315" data-name="Path 9315" d="M66.371,52.894a.751.751,0,0,0-.651.765v1.606a.741.741,0,0,0,.841.765.751.751,0,0,0,.651-.765V53.66A.747.747,0,0,0,66.371,52.894Z" transform="translate(-22.317 -17.6)" fill="#c02e42"/>
        <path id="Path_9316" data-name="Path 9316" d="M60.811,52.894a.751.751,0,0,0-.651.765v1.606a.741.741,0,0,0,.841.765.751.751,0,0,0,.651-.765V53.66A.747.747,0,0,0,60.811,52.894Z" transform="translate(-20.273 -17.6)" fill="#c02e42"/>
        <path id="Path_9317" data-name="Path 9317" d="M66.561,67.528a.761.761,0,0,0-.841.765v1.644a.741.741,0,0,0,.841.765.751.751,0,0,0,.651-.765V68.294A.755.755,0,0,0,66.561,67.528Z" transform="translate(-22.317 -22.98)" fill="#c02e42"/>
        <path id="Path_9318" data-name="Path 9318" d="M66.561,60.278a.761.761,0,0,0-.841.765V62.65a.741.741,0,0,0,.841.765.751.751,0,0,0,.651-.765V61.044A.746.746,0,0,0,66.561,60.278Z" transform="translate(-22.317 -20.316)" fill="#c02e42"/>
        <path id="Path_9319" data-name="Path 9319" d="M61,60.278a.761.761,0,0,0-.841.765V62.65a.741.741,0,0,0,.841.765.751.751,0,0,0,.651-.765V61.044A.751.751,0,0,0,61,60.278Z" transform="translate(-20.273 -20.316)" fill="#c02e42"/>
        <path id="Path_9320" data-name="Path 9320" d="M61,67.528a.761.761,0,0,0-.841.765v1.644A.741.741,0,0,0,61,70.7a.751.751,0,0,0,.651-.765V68.294A.76.76,0,0,0,61,67.528Z" transform="translate(-20.273 -22.98)" fill="#c02e42"/>
        <path id="Path_9322" data-name="Path 9322" d="M46.351,31.194a.751.751,0,0,0-.651.765v1.455a.75.75,0,0,0,.651.765.761.761,0,0,0,.841-.765V31.959A.735.735,0,0,0,46.351,31.194Z" transform="translate(-14.959 -9.623)" fill="#c02e42"/>
        <path id="Path_9323" data-name="Path 9323" d="M46.351,37.9a.751.751,0,0,0-.651.765v1.493a.75.75,0,0,0,.651.765.761.761,0,0,0,.841-.765V38.67A.739.739,0,0,0,46.351,37.9Z" transform="translate(-14.959 -12.09)" fill="#c02e42"/>
        <path id="Path_9324" data-name="Path 9324" d="M46.351,44.734a.751.751,0,0,0-.651.765v1.455a.75.75,0,0,0,.651.765.761.761,0,0,0,.841-.765V45.5A.739.739,0,0,0,46.351,44.734Z" transform="translate(-14.959 -14.6)" fill="#c02e42"/>
      </g>
    </g>
  </defs>
</svg>
